<svg xmlns="http://www.w3.org/2000/svg" viewBox="0 0 1200 700" role="img" aria-label="Demo placeholder">
  <defs>
    <linearGradient id="bar" x1="0" y1="0" x2="1" y2="0">
      <stop offset="0%" stop-color="#0066FF" stop-opacity="0.25"/>
      <stop offset="100%" stop-color="#00C896" stop-opacity="0.25"/>
    </linearGradient>
    <linearGradient id="spark" x1="0" y1="0" x2="1" y2="0">
      <stop offset="0%" stop-color="#0066FF"/>
      <stop offset="100%" stop-color="#00C896"/>
    </linearGradient>
  </defs>

  <rect width="1200" height="700" fill="#0a0d14"/>

  <rect x="60" y="60" width="1080" height="580" rx="18" fill="#0f1320" stroke="rgba(255,255,255,0.08)"/>
  <rect x="60" y="60" width="1080" height="48" rx="18" fill="#12172a"/>
  <circle cx="92" cy="84" r="6" fill="#ff5f57"/>
  <circle cx="114" cy="84" r="6" fill="#febc2e"/>
  <circle cx="136" cy="84" r="6" fill="#28c840"/>
  <rect x="200" y="72" width="720" height="24" rx="12" fill="#0a0d14" stroke="rgba(255,255,255,0.06)"/>
  <text x="220" y="88" fill="#9a9aa1" font-family="JetBrains Mono,monospace" font-size="12">demo.mikencube.dev / systems / overview</text>

  <rect x="60" y="108" width="220" height="532" fill="#0c1020"/>
  <text x="90" y="150" fill="#fff" font-family="Inter,system-ui" font-size="14" font-weight="600">Systems</text>
  <rect x="80" y="170" width="180" height="32" rx="8" fill="rgba(0,102,255,0.14)" stroke="rgba(0,102,255,0.35)"/>
  <text x="96" y="190" fill="#fff" font-family="Inter,system-ui" font-size="12">Agentic Workflow</text>
  <text x="96" y="224" fill="#9a9aa1" font-family="Inter,system-ui" font-size="12">LLM Backend</text>
  <text x="96" y="254" fill="#9a9aa1" font-family="Inter,system-ui" font-size="12">Data Pipeline</text>
  <text x="96" y="284" fill="#9a9aa1" font-family="Inter,system-ui" font-size="12">Eval Harness</text>

  <text x="310" y="150" fill="#fff" font-family="Inter,system-ui" font-size="22" font-weight="700">Run overview</text>
  <text x="310" y="172" fill="#9a9aa1" font-family="JetBrains Mono,monospace" font-size="11">last 24h · p95 latency · token spend</text>

  <g font-family="Inter,system-ui">
    <rect x="310" y="200" width="240" height="88" rx="14" fill="#0c1020" stroke="rgba(255,255,255,0.08)"/>
    <text x="328" y="226" fill="#9a9aa1" font-size="11">RUNS</text>
    <text x="328" y="262" fill="#fff" font-size="26" font-weight="700"></text>

    <rect x="570" y="200" width="240" height="88" rx="14" fill="#0c1020" stroke="rgba(255,255,255,0.08)"/>
    <text x="588" y="226" fill="#9a9aa1" font-size="11">P95 LATENCY</text>
    <text x="588" y="262" fill="#fff" font-size="26" font-weight="700"></text>

    <rect x="830" y="200" width="280" height="88" rx="14" fill="#0c1020" stroke="rgba(255,255,255,0.08)"/>
    <text x="848" y="226" fill="#9a9aa1" font-size="11">COST / REQ</text>
    <text x="848" y="262" fill="#fff" font-size="26" font-weight="700"></text>
  </g>

  <rect x="310" y="308" width="800" height="220" rx="14" fill="#0c1020" stroke="rgba(255,255,255,0.08)"/>
  <text x="328" y="334" fill="#9a9aa1" font-family="Inter,system-ui" font-size="11">THROUGHPUT</text>
  <polyline fill="none" stroke="url(#spark)" stroke-width="3"
    points="340,500 400,470 460,480 520,440 580,455 640,410 700,420 760,385 820,395 880,360 940,370 1000,340 1060,355 1100,330"/>
  <rect x="340" y="505" width="760" height="8" fill="url(#bar)" opacity="0.5"/>

  <rect x="310" y="548" width="800" height="80" rx="14" fill="#0c1020" stroke="rgba(255,255,255,0.08)"/>
  <g font-family="JetBrains Mono,monospace" font-size="11" fill="#9a9aa1">
    <text x="328" y="572">run_id=01HZ& step=plan status=ok  latency=312ms  tokens=1804</text>
    <text x="328" y="592">run_id=01HZ& step=tool:search status=ok latency=184ms tokens=612</text>
    <text x="328" y="612">run_id=01HZ& step=synthesise status=ok latency=740ms tokens=2208</text>
  </g>

  <text x="60" y="44" fill="rgba(255,255,255,0.35)" font-family="JetBrains Mono,monospace" font-size="11" letter-spacing="2">DEMO · PLACEHOLDER</text>
  <text x="1140" y="44" text-anchor="end" fill="rgba(255,255,255,0.25)" font-family="JetBrains Mono,monospace" font-size="11">swap with live screenshot</text>
</svg>
